/* XPM */
static char *_c94269f7ff447d69d2c01f6d6370a4aBakdSQaolaaVhqpN[] = {
/* columns rows colors chars-per-pixel */
"64 64 241 2 ",
"   c None",
".  c #1B7037",
"X  c #26793A",
"o  c #2F7338",
"O  c #7C5F31",
"+  c #3F7748",
"@  c #DA3A25",
"#  c #CE3924",
"$  c #EA3C26",
"%  c #E23B27",
"&  c #B5572C",
"*  c #AE5D30",
"=  c #B06C33",
"-  c #916235",
";  c #D24826",
":  c #C75928",
">  c #D35B2A",
",  c #D95829",
"<  c #D24F35",
"1  c #E74927",
"2  c #E4512B",
"3  c #E85A28",
"4  c #F25D29",
"5  c #CD652C",
"6  c #D56C2C",
"7  c #DB6D2B",
"8  c #D8632A",
"9  c #D5712D",
"0  c #DC732C",
"q  c #DB782D",
"w  c #D66A34",
"e  c #C87733",
"r  c #D57333",
"t  c #DC7B33",
"y  c #D97735",
"u  c #EB6C2C",
"i  c #E8672B",
"p  c #F16428",
"a  c #F16B2B",
"s  c #E3732D",
"d  c #EB7C2C",
"f  c #E8772C",
"g  c #F37B2D",
"h  c #E67934",
"j  c #F47C33",
"k  c #EB6D30",
"l  c #BA5C5D",
"z  c #BC7A44",
"x  c #BC5B64",
"c  c #BA6365",
"v  c #B87875",
"b  c #B06D73",
"n  c #C85449",
"m  c #D35448",
"M  c #C95A53",
"N  c #D55349",
"B  c #D76748",
"V  c #CC7942",
"C  c #D77549",
"Z  c #C6675B",
"A  c #D2675A",
"S  c #CF715C",
"D  c #E26849",
"F  c #C65E60",
"G  c #C96B64",
"H  c #C0716B",
"J  c #CD756B",
"K  c #2D853D",
"L  c #35893C",
"P  c #3A923D",
"I  c #4C903D",
"U  c #6F923A",
"Y  c #5CA53F",
"T  c #368C45",
"R  c #3C9544",
"E  c #3B9345",
"W  c #498844",
"Q  c #429644",
"!  c #439C45",
"~  c #4A9D46",
"^  c #499A4A",
"/  c #579B49",
"(  c #4A8557",
")  c #568D5A",
"_  c #499455",
"`  c #5B9B5B",
"'  c #578D46",
"]  c #709750",
"[  c #45A045",
"{  c #4CA246",
"}  c #4AA148",
"|  c #47A149",
" . c #59A546",
".. c #5DA256",
"X. c #64A35B",
"o. c #6FA543",
"O. c #548D61",
"+. c #599763",
"@. c #4C8460",
"#. c #669C69",
"$. c #739B75",
"%. c #709971",
"&. c #5EA067",
"*. c #6BA465",
"=. c #6CA06C",
"-. c #74A175",
";. c #849F39",
":. c #BE8A36",
">. c #94AA3B",
",. c #9AAE3B",
"<. c #9DB33D",
"1. c #89A73D",
"2. c #ADBB36",
"3. c #A3B43B",
"4. c #A9BA3C",
"5. c #B2BE34",
"6. c #DB8439",
"7. c #CA8A34",
"8. c #F5862E",
"9. c #E48334",
"0. c #E3833C",
"q. c #E58A3B",
"w. c #EA8E3A",
"e. c #EA8835",
"r. c #F38333",
"t. c #F38C34",
"y. c #F38738",
"u. c #ED923C",
"i. c #EC963C",
"p. c #F59335",
"a. c #F3953A",
"s. c #F59B3C",
"d. c #F89937",
"f. c #EB842E",
"g. c #F5A33D",
"h. c #FAA53E",
"j. c #FAA83E",
"k. c #B98D46",
"l. c #B19452",
"z. c #86A446",
"x. c #96AC43",
"c. c #87A358",
"v. c #99B155",
"b. c #97896F",
"n. c #B49270",
"m. c #92AC63",
"M. c #BAA079",
"N. c #D99C4D",
"B. c #CA8A55",
"V. c #D98B53",
"C. c #D79556",
"Z. c #CB9248",
"A. c #E49142",
"S. c #EC9441",
"D. c #E99A48",
"F. c #F29C42",
"G. c #F89B45",
"H. c #E88E4B",
"J. c #CAA245",
"K. c #C8A359",
"L. c #EBA24B",
"P. c #F5A442",
"I. c #FAA642",
"U. c #FAA943",
"Y. c #F3A44B",
"T. c #F6AB4C",
"R. c #FAAC4C",
"E. c #F7A846",
"W. c #F9B14D",
"Q. c #F5AC52",
"!. c #FAAE51",
"~. c #F3A754",
"^. c #FAB152",
"/. c #FAB55A",
"(. c #F8B557",
"). c #ECAD55",
"_. c #CF9472",
"`. c #DCA879",
"'. c #C8A472",
"]. c #FBBA64",
"[. c #F8B864",
"{. c #EAB069",
"}. c #A2798A",
"|. c #9A6C96",
" X c #798EBE",
".X c #7A91BD",
"XX c #7599C9",
"oX c #718FC2",
"OX c #54A3D6",
"+X c #66AFDE",
"@X c #45B8EA",
"#X c #71C4EB",
"$X c #9D8594",
"%X c #B18F93",
"&X c #98A184",
"*X c #B3A793",
"=X c #9494B5",
"-X c #AE9DA9",
";X c #BDA9A8",
":X c #B2AEB1",
">X c #94A5BF",
",X c #CB9785",
"<X c #CA9591",
"1X c #CAAB8D",
"2X c #C1AFB6",
"3X c #D3C892",
"4X c #859AC6",
"5X c #8CA2CC",
"6X c #93A5CC",
"7X c #96A9CD",
"8X c #95ABD3",
"9X c #98ACD4",
"0X c #93A6D2",
"qX c #9CB1D5",
"wX c #9CB1D9",
"eX c #98B5D6",
"rX c #93B0D4",
"tX c #A4ADC6",
"yX c #A4B2CD",
"uX c #A9B3C8",
"iX c #A3B4D4",
"pX c #A2B6DA",
"aX c #A5BADB",
"sX c #AABBDB",
"dX c #A7BAD5",
"fX c #B0BFD9",
"gX c #A8BFE2",
"hX c #A9C0DE",
"jX c #BCC6D7",
"kX c #B7C6C6",
"lX c #91CDEC",
"zX c #AAC5E3",
"xX c #B7C9E4",
"cX c #A3D7F1",
"vX c #AAD8F1",
"bX c #BAE1F3",
"nX c #C1CBDE",
"mX c #C3CEE2",
"MX c #C7D3E9",
"NX c #D5DEEF",
"BX c #D9E4F2",
/* pixels */
"                                                                                                                                ",
"                                                                                                                                ",
"                                                            *.                                                                  ",
"                                                             .=.                                                                ",
"                                                            { *.                                                                ",
"                                                          +.[ X.      #.                                                        ",
"                                                O.        +.| *.      U                                                         ",
"                                                / `       ` } `     ] o.                                                        ",
"                                                X./       ^ { ..    z.;.      -.                                                ",
"                                          -.    *.~       ! { X.    <.z.      / Q                                               ",
"                                          z.    #.{ _     ~ { ~   c.3.v.    #.! T                                               ",
"                                          x.z.    { Q     } { I   ,.3.c.    ~ { %.                                              ",
"                                          v.4.c.  ~ { O.  } ~ I -.2.2.m.  &.~ ~                                                 ",
"                                            2.x.  ` [ E   [ ! P z.5.4.  $.{ { _                                                 ",
"                                            v.2.c.#.! ! @.[ ! R >.5.x.  / { { O.                                                ",
"                                            m.2.3.$.[ ~ X ! ! E ,.5.m.#.| { ! $.)                                               ",
"                                              3.3.z.T } K ! Q E <.2.%.~ { ! _ m.+.                                              ",
"                                        )     c.3.3.I { K ! R P <.;.! [ ! R U >.                                                ",
"                                        )  .%.  ,.,.U ! L R Q L z.W [ ! R I 3.]                                                 ",
"                                          W  .X.$.>.z.L L E R L W ! ! R L 3.;.  #.*.                                            ",
"                                            T ~ / U o.W L K E X R ^ R X >.>.] X. .)                                             ",
"                                              ( P  .I W K X X T Q T o ] U /  .Q (                                               ",
"                                                O.X ~ W . . . K X o ' / Y Q L O.                                                ",
"                                                  b.O * * & - & & = - + ( (                 oX5X                                ",
"                                                S 8 s y.s w w.0 8 f u w v                 yXtXsX                                ",
"                                              B 8 y.G.t h p.t.p.f.w 0 8 u B               xXjXaX                                ",
"                                          S u r.y.7 5 9.p.p.0.a.p.f r 7 y.j >             mXyX7X                                ",
"                                        D 8 8.t.t.7 9.7 e.d.s.d.q 9.s.y.7 d r.C           NXNX                                  ",
"                                      m u f.t.f.y s.h.h.6.9.g.t i.h.s.a.t.0 7 0 G         MXMX                                  ",
"                                    v 3 g t.d t h.P.E.R.U.w.: F.!.(.~.D.E.s.y : 3         xXmX                                  ",
"                                    < , d 0 9.E.R.D././.Y.r F.y F.R.!.T.E.u.6 y., Z       dXtX                                  ",
"                                  G p f > t E.(./././.F.r T.I.h.t u.R.R.F.6 t.y.C b >XsXxXBXMX                                  ",
"                                  2 g s 6.v *X1X[.T.q.y h.P.j.I.h.9.h p.6 p.d.,XsXsX6XMXmXMXsX                                  ",
"                                A 4 u r -X6XXXwX=Xy t P.j.P.g.h.I.I.w.: e.E.E.D.v c b                                           ",
"                                < 3 6 <X4XOX#X+XpXv h.I.j.I.A.E.R.!.6.L.y w.R.R.s.i <                                           ",
"                                $ , r.yXXXlXcXlX4X}.6.!.R.!.T.!.^.0.S.j.P.y w.R.G.s ;                                           ",
"                              M ; k S.aXeXbXcXlXqX%Xq.6.R.^.^.!.q.u.j.I.j.j.t w.a.> 3 S                                         ",
"                              M ; j S.7XeXcXbXdX5XC.P.u.t R.^.S.q.j.j.h.h.j.P.r 0 s p B                                         ",
"                              m 2 7 a.%XqXqXqX9X$XP.I.I.s.r 9.6.P.j.I.A.R.R.W.P.: d a ,                                         ",
"                              % 4 f 6 6 n.=X=X}.A.P.U.U.I.a.: i.E.R.^.Y.^.^.!.6.L.6 u 2                                         ",
"                              @ p g h 5 e.E.E.R.Y.T.^.^.T.C Q.t D.W.^.^.W.R.0.D.h.a.> ,                                         ",
"                            A @ u u q.P.q 9.T.!.^.(.(.Q.q Q.U.h.t S.^.!.T.u.6.P.h.p.j ; b                                       ",
"                            A $ 3 0 s.h.h.e.0 Y.^.^.Q.y P.j.j.I.h.w.0.g.u.y I.h.s.p.8.2 l                                       ",
"                            < % , g p.h.I.j.F.r i.L.9 F.j.I.P.P.I.E.i.6 6 P.j.h.u.t.r.2 c                                       ",
"                            G # a 8.p.s.j.I.I.P.y w w.h.E.E.D.Q.^./.Y.9 6 F.R.h.s.a.y.; x                                       ",
"                            H @ p g d.q.j.P.T.`.uXhXfX:X{././.[.]./.t i.s.9 Y.T.T.E.h ; F                                       ",
"                            G # p r.d.a.E./.1XxXqX8X9XzXyX{.].].].9.q.j.`.-X-X`.!.~.> 2 M                                       ",
"                            m % ; j Y.!./.).iX4XwXzXgX6XaX:X].].S.t h.`.jXaXaXiX,Xh , 2 M                                       ",
"                            N $ 2 > w.F.s.<X8X8XzXaXpXaX4XzXA.f.9 P.h.2XxX+X@XOXiX: a 1 m                                       ",
"                            N $ 1 i 8 f 7 uX4XsXzXdX9XaXqXaXJ 6 s.h.P.uXrX#XcXzXsXS p 1 m                                       ",
"                            M @ 1 p f 5 V sX XsXjXjXpX6XqX0X%X0 E.U.P.>X8XlXbXzXaXA 3 %                                         ",
"                            n @ 1 3 s 0 G aX4XdX.X4X XqX7X8X2Xt u.^.W.-XsXrXdXyXtX> 1 %                                         ",
"                            v < $ 2 , 8._.aX5X9X.XyX XiX7X9X;Xh.q Y.^.~.-XxXiXmX_.3 n l                                         ",
"                              x S C H.r.<XwX0X6XiX5X8X4XqX9X;XP.g.y E.R.Y.Z ,XC D M b b                                         ",
"                              b.l.e N.N.<X7X4XiX0X6X4XnX0X5X;XR.U.w.t u.s s g h H c |.%X                                        ",
"                              &XC.K.N.9 *XaX5XaXaXaXqX6X8XqX1XL.Q.d.6.7 8 g u V.M.$X$X2X                                        ",
"                              1Xl.k.6.k.K.iX4XsXaXqXqXqX0XpX,XL.).J.7.e s 0.h C.'.'.-X                                          ",
"                                1XC.Z.z e dX4XsXpXqXqXqX4XdXV.A.S.J.6.:.= k.B.C V.*X                                            ",
"                                    n.B.= hXXXpXqXwXwXqX:XkXC.N.J.k.:.l.5 z '.'.3X                                              ",
"                                            4X6X6X8X8X6X:XuXC l.V Z.Z.B.l.b.                                                    ",
"                                                                                                                                ",
"                                                                                                                                ",
"                                                                                                                                ",
"                                                                                                                                "
};
