/* XPM */
static const char *aXRlbXM1[] = {
/* columns rows colors chars-per-pixel */
"64 64 155 2 ",
"   c #C53EF7",
".  c #C536F8",
"X  c #C538F8",
"o  c #C543F7",
"O  c #C54BF6",
"+  c #C545F8",
"@  c #C64DF9",
"#  c #C553F5",
"$  c #C559F4",
"%  c #C654F9",
"&  c #C75BF9",
"*  c #C562F3",
"=  c #C669F3",
"-  c #C763FA",
";  c #C76AF9",
":  c #C86AFB",
">  c #C774F3",
",  c #C77AF3",
"<  c #C87CF7",
"1  c #C770F8",
"2  c #C977FB",
"3  c #C97DFC",
"4  c #B7A7E8",
"5  c #BEA6EF",
"6  c #B7A8E8",
"7  c #BBACEB",
"8  c #BDB3EC",
"9  c #BEBBED",
"0  c #BFA5F0",
"q  c #BFA9F0",
"w  c #C884F5",
"e  c #C989F6",
"r  c #C983FB",
"t  c #CA8CF9",
"y  c #C59EF6",
"u  c #CB94FD",
"i  c #C79EF9",
"p  c #CC99FF",
"a  c #C0B7EE",
"s  c #C1BCEE",
"d  c #C2A2F4",
"f  c #C2ABF2",
"g  c #C7A3F9",
"h  c #CAA3FC",
"j  c #C7AAF8",
"k  c #CCAAFD",
"l  c #C4B3F3",
"z  c #C5BBF3",
"x  c #CBB3FC",
"c  c #CCBBF9",
"v  c #D1B6FF",
"b  c #D1BCFF",
"n  c #BEC2ED",
"m  c #C1C3EF",
"M  c #C1C9EF",
"N  c #C5C4F1",
"B  c #C8C6F2",
"V  c #C6CBF1",
"C  c #C4CAF1",
"Z  c #C4CCF1",
"A  c #C4CCF2",
"S  c #C4CCF1",
"D  c #C9C9F3",
"F  c #C9CAF3",
"G  c #C8CEF3",
"H  c #CACCF4",
"J  c #CBCCF5",
"K  c #CACCF4",
"L  c #CFCBF9",
"P  c #D3C2FE",
"I  c #D2CDFC",
"U  c #C6D0F3",
"Y  c #C5D2F2",
"T  c #C8D2F4",
"R  c #C9D2F4",
"E  c #C8D3F4",
"W  c #CDD3F5",
"Q  c #CED3F6",
"!  c #CFD2F7",
"~  c #CED3F7",
"^  c #CFD3F7",
"/  c #C8D4F4",
"(  c #C9D4F4",
")  c #C8D5F4",
"_  c #CAD4F5",
"`  c #C9D6F5",
"'  c #CBD6F5",
"]  c #CAD7F5",
"[  c #CDD5F6",
"{  c #CFD5F7",
"}  c #CCD4F6",
"|  c #CDD9F7",
" . c #CDDAF7",
".. c #CFDBF7",
"X. c #CDD9F7",
"o. c #CED6F8",
"O. c #CFD8F8",
"+. c #CFDBF8",
"@. c #CFDCF8",
"#. c #CFDDF8",
"$. c #CFDCF8",
"%. c #D0D6F7",
"&. c #D0D5F7",
"*. c #D0D6F8",
"=. c #D1D7F8",
"-. c #D4D1FD",
";. c #D2D6FA",
":. c #D8D7FF",
">. c #D0D8F8",
",. c #D0D9F8",
"<. c #D1D9F8",
"1. c #D3D8FA",
"2. c #D3DBFB",
"3. c #D1DCF8",
"4. c #D0DDF8",
"5. c #D1DEF9",
"6. c #D3DCFA",
"7. c #D3DEFA",
"8. c #D2DFFA",
"9. c #D4DCFA",
"0. c #D5DEFB",
"q. c #D4DFFB",
"w. c #D6DFFB",
"e. c #D7DDFD",
"r. c #D6DFFC",
"t. c #D3DCFA",
"y. c #D8DCFF",
"u. c #D3E0FA",
"i. c #D4E1FB",
"p. c #D6E0FC",
"a. c #D7E1FC",
"s. c #D5E3FC",
"d. c #D6E3FC",
"f. c #D6E4FC",
"g. c #D7E4FC",
"h. c #D7E4FD",
"j. c #D6E2FC",
"k. c #D8E3FD",
"l. c #D8E4FD",
"z. c #D9E4FD",
"x. c #D8E5FD",
"c. c #D9E4FE",
"v. c #D9E5FE",
"b. c #D9E6FE",
"n. c #D9E7FE",
"m. c #DAE6FE",
"M. c #DAE7FE",
"N. c #DAE7FF",
"B. c #D9E5FE",
"V. c #DAE8FF",
"C. c #DBE8FF",
"Z. c #DCE9FF",
"A. c #DBE8FF",
"S. c None",
"D. c black",
/* pixels */
"S.S.S.S.S.S.S.S.S.S.S.S.S.S.S.S.S.S.S.S.S.S.S.S.S.S.S.S.S.S.S.S.S.S.S.S.S.S.S.S.S.S.S.S.S.S.S.S.S.S.S.S.S.S.S.S.S.S.S.S.S.S.S.S.",
"S.S.S.S.S.S.S.S.S.S.S.S.S.S.S.S.S.S.S.S.S.S.S.S.S.S.S.S.S.S.S.s 8 8 8 +.a.a.6.B S.S.S.S.S.S.S.S.S.S.S.S.S.S.S.S.S.S.S.S.S.S.S.S.",
"S.S.S.S.S.S.S.S.S.S.S.S.S.S.S.S.S.S.S.S.S.S.S.S.S.S.S.S. .u.<.{ n n n n n n C =.&.6.D S.S.S.S.S.S.S.S.S.S.S.S.S.S.S.S.S.S.S.S.S.",
"S.S.S.S.S.S.S.S.S.S.S.S.S.S.S.S.S.S.S.S.S.S.S.S.S.6.M.C.q.9 8 d d d d d d d d d d z ! { q.S.S.S.S.S.S.S.S.S.S.S.S.S.S.S.S.S.S.S.",
"S.S.S.S.S.S.S.S.S.S.S.S.S.S.S.S.S.S.S.S.S.S.7 M.#.i.C.C.M.N d p p p p p p p p p p p g z a.Z.S.S.S.S.S.S.S.S.S.S.S.S.S.S.S.S.S.S.",
"S.S.S.S.S.S.S.S.S.S.S.S.S.S.S.S.S.S.S.S.S.C.6.)  .M.C.C.C. .j p p p p p p p p p p p p p l R M.S.S.S.S.S.S.S.S.S.S.S.S.S.S.S.S.S.",
"S.S.S.S.S.S.S.S.S.S.S.S.S.S.S.S.S.S.S.S.S.M.s s M.C.C.C.C.#.j p p p p p p p p p p p p p p 8 ) Z.S.S.S.S.S.S.S.S.S.S.S.S.S.S.S.S.",
"S.S.S.S.S.S.S.S.S.S.S.S.S.S.S.S.S.S.S.S.C.N 8 M.C.C.C.C.M.J i p p p p p p p p p p p p p p p z M.S.S.S.S.S.S.S.S.S.S.S.S.S.S.S.S.",
"S.S.S.S.S.S.S.S.S.S.S.S.S.S.S.S.S.S.S.D +.8 U M.C.C.C.q.! d p p p u u p p p p p p p p p p p i B J S.S.S.S.S.S.S.S.S.S.S.S.S.S.S.",
"S.S.S.S.S.S.S.S.S.S.S.S.S.S.S.S.S.S.S.M.N 8 k.C.C.g.<.f d p p p r * = e p p p p p p p p u u u j <.S.S.S.S.S.S.S.S.S.S.S.S.S.S.S.",
"S.S.S.S.S.S.S.S.S.S.S.S.S.S.S.S.S.S.M.B 6 G M.C.g.Z f p p p p 3 X . . $ e p p p p p p > * * = u c  .S.S.S.S.S.S.S.S.S.S.S.S.S.S.",
"S.S.S.S.S.S.S.S.S.S.S.S.S.S.S.S.S.! ) 6 8 6.C.C.<.f p p p p p @ X X X . , p p p p p , o . .   2 i r.8 S.S.S.S.S.S.S.S.S.S.S.S.S.",
"S.S.S.S.S.S.S.S.S.S.S.S.S.S.S.S.S.g.8 8 ) M.C.C.-.p p p p p p % X X X X , p p p p p = . X X . : p k <.S.S.S.S.S.S.S.S.S.S.S.S.S.",
"S.S.S.S.S.S.S.S.S.S.S.S.S.S.S.S.g.) 7 s M.C.C.q.f p p p p p p , o     = u p p p p p r X     O w p d r.7 S.S.S.S.S.S.S.S.S.S.S.S.",
"S.S.S.S.S.S.S.S.S.S.S.S.S.S.S.S.{ s 8 M.C.C.a.f p p p p p p p p , , e p p p p p p p p e , , w p p p U M.S.S.S.S.S.S.S.S.S.S.S.S.",
"S.S.S.S.S.S.S.S.S.S.S.S.S.S.S.S.) 8 s C.C.C.8 p p p p p p p p p p p p p p p p p p p p p p p p p p p C C.S.S.S.S.S.S.S.S.S.S.S.S.",
"S.S.S.S.S.S.S.S.S.S.S.S.S.S.S.=.B 6 M.C.C.C.8 p p p p p p p p p p p p p u u u t p p p p p p p p p p 8 C.S.S.S.S.S.S.S.S.S.S.S.S.",
"S.S.S.S.S.S.S.S.S.S.S.S.S.S.S.C m 9 M.C.C.Z.8 p p p p p p p p p p p p p = * * * u p p p p p p p p p 8 C.S.S.S.S.S.S.S.S.S.S.S.S.",
"S.S.S.S.S.S.S.S.S.S.S.S.S.S.S.R 7 M M.C.C.6.8 p p p p p p u e e e p p e o . . . < p p p p p p p p p 8 C.S.S.S.S.S.S.S.S.S.S.S.S.",
"S.S.S.S.S.S.S.S.S.S.S.S.S.S.S.! 6 M M.C.Z.) 7 p p p p p < % O # # 2 p u + X X . r p p t ; - w p p p 8 C.S.S.S.S.S.S.S.S.S.S.S.S.",
"S.S.S.S.S.S.S.S.S.S.S.S.S.S.S.! d N M.C.C.) 7 p p p p u o . X X X   3 p >     * p p > @ X . # e p p 8 C.S.S.S.S.S.S.S.S.S.S.S.S.",
"S.S.S.S.S.S.S.S.S.S.S.S.S.S.S.! y 7 M.C.C.M.8 p p p p @ X X X X X . * u p p p p p @   X . . X $ t p Z C.S.S.S.S.S.S.S.S.S.S.S.S.",
"S.S.S.S.S.S.S.S.S.S.S.S.S.S.S.! d 7 M.C.C.C.s p p p <   X X X X . . * u p p p p ,   X X . X . $ t i R g.S.S.S.S.S.S.S.S.S.S.S.S.",
"S.S.S.S.S.S.S.S.S.S.S.S.S.S.S.=.7 7 M.C.C.C.{ g p p % X X X X X X . * u p p p p % X X X . X . $ t 7 a.n S.S.S.S.S.S.S.S.S.S.S.S.",
"S.S.S.S.S.S.S.S.S.S.S.S.S.S.S.#.s 7 M.C.C.C.M.7 p e O X X X X X X . * u p p p < o X X X X X . $ t 7 a.S.S.S.S.S.S.S.S.S.S.S.S.S.",
"S.S.S.S.S.S.S.S.S.S.S.S.S.S.S.6.B 6  .C.C.C.M.6 d e O X X X X X X . 1 p p p p : . X X X X X . $ t z M.S.S.S.S.S.S.S.S.S.S.S.S.S.",
"S.S.S.S.S.S.S.S.S.S.S.S.S.S.S.S.) 8 9 C.C.C.M.n d e O X X X X X X O e p p p u $ . X X X X X . - y =.S.S.S.S.S.S.S.S.S.S.S.S.S.S.",
"S.S.S.S.S.S.S.S.S.S.S.S.S.S.S.S.{ Z 7 B C.C.C.6.d p % X X X X X X - p p p p t # X X X X X X O w z a.S.S.S.S.S.S.S.S.S.S.S.S.S.S.",
"S.S.S.S.S.S.S.S.S.S.S.S.S.S.S.S.S u.S 7 K M.M.M.I p - X X X X X O w p p p p p ; X X X X X X & p I S.S.S.S.S.S.S.S.S.S.S.S.S.S.S.",
"S.S.S.S.S.S.S.S.S.S.S.S.S.S.S.S.S.M a.8 7 n 6.=.d p p & O O O % w p p p p p p e # X . . o & p P  .S.S.S.S.S.S.S.S.S.S.S.S.S.S.S.",
"S.S.S.S.S.S.S.S.S.S.S.S.S.S.S.S.S.N <.6.N 0 0 d p p p p w w w p p p p p p p p p w # # # , p j 6.Z.S.S.S.S.S.S.S.S.S.S.S.S.S.S.S.",
"S.S.S.S.S.S.S.S.S.S.S.S.S.S.S.S.S.C.8 N v p p P P P x d d i p p p p p p p p p p p e e e p d J a.q.S.S.S.S.S.S.S.S.S.S.S.S.S.S.S.",
"S.S.S.S.S.S.S.S.S.S.S.S.S.S.S.S.S.C.n 5 p p p D R g.u.! ! I k p p p p p p p p p p p p p b ! M.s ! N S.S.S.S.S.S.S.S.S.S.S.S.S.S.",
"S.S.S.S.S.S.S.S.S.S.S.S.S.S.S.S.S.) <.6 d p p i g x v v P Z.y.:.:.:.:.k p k P p p -.:.:.M.M.s 4 ! S.S.S.S.S.S.S.S.S.S.S.S.S.S.S.",
"S.S.S.S.S.S.S.S.S.S.S.S.S.S.S.S.S.S.M.<.9 7 7 p p p p p 7 s s s s U U k p p h p p a s s s 8 6 8 6.S.S.S.S.S.S.S.S.S.S.S.S.S.S.S.",
"S.S.S.S.S.S.S.S.S.S.S.S.S.S.S.S.S.S.S.M.M.k.S C 7 7 7 7 i i i i i i i p p p p p p i d 6 7 8 8 ] S.S.S.S.S.S.S.S.S.S.S.S.S.S.S.S.",
"S.S.S.S.S.S.S.S.S.S.S.S.S.S.S.S.S.S.s i. .S.8 M.M.a.a.M.C a a 8 7 h h h 8 8 a a a a a 8 C M.M.M.S.S.S.S.S.S.S.S.S.S.S.S.S.S.S.S.",
"S.S.S.S.S.S.S.S.S.S.S.S.S.S.S.S.S.S.M.+.#.S.S.S.S.S.n M.a.M.6.) ) ) ) U n C a.g.i.C.C.C.a.<.q.C.S.S.S.S.S.S.S.S.S.S.S.S.S.S.S.S.",
"S.S.S.S.S.S.S.S.S.S.S.S.S.S.S.S.S.B  .C { S.S.S.S.S.B <./ i.8 a.Z.a.q. .7 6 ! R S M.S.S. .8 8 a.S.S.S.S.S.S.S.S.S.S.S.S.S.S.S.S.",
"S.S.S.S.S.S.S.S.S.S.S.S.S.S.S.S.S.C.m u.<.S.S.S.S.S.Z.N #. .S.S.S.=.J B S.S.S.B M M.S.S.Z.8 7 J J S.S.S.S.S.S.S.S.S.S.S.S.S.S.S.",
"S.S.S.S.S.S.S.S.S.S.S.S.S.S.S.S.S. .C C.S.S.S.S.S.S.) 8 q.8 S.S.S.=.J s S.S.S.B 8 M.S.S.C.=.6 B q.S.S.S.S.S.S.S.S.S.S.S.S.S.S.S.",
"S.S.S.S.S.S.S.S.S.S.S.S.S.S.S.B  .9 i.S.S.S.S.S.S.g.s C M.S.S.S.S.=.n 6.S.S.S.B 7 a.6 S.s a.7 7 =.) S.S.S.S.S.S.S.S.S.S.S.S.S.S.",
"S.S.S.S.S.S.S.S.S.S.S.S.S.S.M.+.9 <.8 S.S.S.S.S.S.Y 8 a.C.S.S.S.S.=.9 i.S.S.S.7 7 q.7 S.S.a.M d f <.M.S.S.S.S.S.S.S.S.S.S.S.S.S.",
"S.S.S.S.S.S.S.S.S.S.8 ! C.a.<.9 6./ S.S.S.S.S.S.S.B 8 M.S.S.S.S.S.=.6 <.S.S.S.n 8 8 U S.S.8 q.8 6 7 C a.a.M.M.Z 8 8 8 S.S.S.S.S.",
"S.S.S.S.S.S.! g.i.<.<.<.<.9 N #. .S.S.S.S.S.S.S. .8 Z <.S.S.S.S.S.=.6 <.S.S.S.n 8 f q.S.S.S.C.<.f p p 5 8 { <.<.<.<.<.<.<.a.C.S.",
"S.=.<.C.{ ! { N n 6 6 4 s  .u.S.S.S.S.S.S.S.S.) 9 8 i.8 S.S.S.S.S.=.6 R D S.S.Z 8 p l :.S.S.S.Z.&.d p p i d d d d d d d 5 s a.S.",
"M.{ D P d d d d d 6 8 !  .M.S.S.S.S.S.S.S.S. .B 6 C J S.S.S.S.S.S.=.6 n M.S.S.Z.a p p L Z.S.S.S.Z.&.d d p p p p p p p p i 6 =.S.",
"a.7 i p p p p d z =.{ #.S.S.S.S.S.S.S.S.S.J B 6 6 ! S.S.S.S.S.S.S.=.6 8 M.S.S.Z.a p p l q.U S.S.S.B { 9 0 i p p p p p p 5 N k.S.",
"Z 0 p p p 7 l o.i.s S.S.S.S.S.S.S.S.S.S.S.) 8 d N K S.S.S.S.S.S.S.6.9 6 a.S S.U <.f p p l 6.S S.S.S.S.U q.z 7 7 7 7 7 7 Z +.S.S.",
"a.m 7 7 C k.M.B S.S.S.S.S.S.S.S.S.S.S.S.M.N i h ) S.S.S.S.S.S.S.S.M.D 6 Z M.S.S.M.8 p p p l 6.U S.S.S.S.s &.a.q.q.q.q.a.M.S.S.S.",
"C.M.M.M.M.C.S.S.S.S.S.S.S.S.S.S.S.S.S.g.K i p l =.S.S.S.S.S.S.S.S.B K 6 8 M.S.S.Y q.q p p p l a.S.S.S.S.S.S.S.7 7 7 7 S.S.S.S.S.",
"S.S.S.S.S.S.S.S.S.S.S.S.S.S.S.S.S.S.6.9 d p i b <.S.S.S.S.S.S.S.S.S.J g f a.C.S.S.M.C d p p i 8  .] S.S.S.S.S.S.S.S.S.S.S.S.S.S.",
"S.S.S.S.S.S.S.S.S.S.S.S.S.S.S.S.S.u.n d p p 9 a.S.S.S.S.S.S.S.S.S.S.#.l i C q.S.S.S.! 9 d p p i l ! 6.K S.S.S.S.S.S.S.S.S.S.S.S.",
"S.S.S.S.S.S.S.S.S.S.S.S.S.S.S.s { m d p p y o.S.S.S.S.S.S.S.S.S.S.S.a.s d 8 { S.S.S.N { 8 d p p p d l J N  .S.S.S.S.S.S.S.S.S.S.",
"S.S.S.S.S.S.S.S.S.S.S.S.S.S.8  .m d p p i K ) S.S.S.S.S.S.S.S.S.S.S.] M 7 d J Z.S.S.S.) { 7 d p p p p y g z S C.{ S.S.S.S.S.S.S.",
"S.S.S.S.S.S.S.S.S.S.S.S.S.Y q.{ d p p p l u.S.S.S.S.S.S.S.S.S.S.S.S.S.i.8 p f <.C.C.S.S./ <.7 d p p p p p p h z { S.S.S.S.S.S.S.",
"S.S.S.S.S.S.S.S.S.S.S.S.S a.q.f p p p i K S.S.S.S.S.S.S.S.S.S.S.S.S.S.U C p p f S M.C.S.S.9 <.n d p p p p p p i C K S.S.S.S.S.S.",
"S.S.S.S.S.S.S.S.S.S.S.S.<.r.f p p p i N J S.S.S.S.S.S.S.S.S.S.S.S.S.S.S.i.7 p p q 8 M.S.S.S.s M.D 8 i p p p p g D S.S.S.S.S.S.S.",
"S.S.S.S.S.S.S.S.S.S.S.g.q.f p p p i N a.S.S.S.S.S.S.S.S.S.S.S.S.S.S.S.S.S U f i i 6 N q.S.S.S.S.6.) s s 8 8 8 B C.S.S.S.S.S.S.S.",
"S.S.S.S.S.S.S.S.S.S.S.#.s p p p i z M.S.S.S.S.S.S.S.S.S.S.S.S.S.S.S.S.S.S.Z.<.9 9 9 ! ! S.S.S.S.S.Z.M.{ ]  .Y =.S.S.S.S.S.S.S.S.",
"S.S.S.S.S.S.S.S.S.S.S.$.f p p i z M.S.S.S.S.S.S.S.S.S.S.S.S.S.S.S.S.S.S.S.S.<.{ #.6.Z.S.S.S.S.S.S.S.S.S.S.S.S.S.S.S.S.S.S.S.S.S.",
"S.S.S.S.S.S.S.S.S.S.S.$.j p p z k.S.S.S.S.S.S.S.S.S.S.S.S.S.S.S.S.S.S.S.S.S.S.S.S.S.S.S.S.S.S.S.S.S.S.S.S.S.S.S.S.S.S.S.S.S.S.S.",
"S.S.S.S.S.S.S.S.S.S.S.#.8 5 l k.J S.S.S.S.S.S.S.S.S.S.S.S.S.S.S.S.S.S.S.S.S.S.S.S.S.S.S.S.S.S.S.S.S.S.S.S.S.S.S.S.S.S.S.S.S.S.S.",
"S.S.S.S.S.S.S.S.S.S.S.#.U S k.C.S.S.S.S.S.S.S.S.S.S.S.S.S.S.S.S.S.S.S.S.S.S.S.S.S.S.S.S.S.S.S.S.S.S.S.S.S.S.S.S.S.S.S.S.S.S.S.S."
};
