/* XPM */
static const char *cGxheWVyNA__[] = {
/* columns rows colors chars-per-pixel */
"64 64 25 1 ",
"  c black",
". c #110000",
"X c #111111",
"o c #220000",
"O c #333300",
"+ c #222222",
"@ c gray20",
"# c #660000",
"$ c #663300",
"% c #663333",
"& c #777777",
"* c #993300",
"= c red",
"- c #996633",
"; c #999900",
": c #FFFF33",
"> c #CCCC66",
", c #A349A4",
"< c #888888",
"1 c #BBBBBB",
"2 c #CC9999",
"3 c gray80",
"4 c #EEEEEE",
"5 c white",
"6 c None",
/* pixels */
"6666666666666  - 66666666666666666666666666666666666666666666666",
"666666666666 ----  666666666666666666666666666666666666666666666",
"66666666666 --  ---666666666666666666666666666666666666666666666",
"6666666666 -   6    66666666666666666666666666666666666666666666",
"66666666& - 66666   66666666666666666666666666666666666666666666",
"66666666 - 66 666 6- 66666666  666666666666666666666666666666666",
"6666666 2- 66 666 6- 6666666X :     66666666666666666666  666666",
"6666666 <- 66666 66 -666666 > ::::::                    : 666666",
"66666 66% 66666666 ,  66&6>>> 4::;;:::::::::::;;;::;;:::: 666666",
"6666 666O   6666666  - 6& >>>> :;;;:::::::::::;;:::;::::: 666666",
"666 666 <-   66666666-  &>>>>> :;;;:::::::::::::::::::::: 666666",
"66&&&& 61O-6&6 &6666  - 3>>>>> ::;::: :::::::::: ::: :::: 666666",
"66 666666.- 6   666 6 -->>>>>> ::::::: :&   :::::   ::::: 666666",
"666666 6&   6 6666666 - >>>>>> ::::::::  444 ::  444 :::: 666666",
"6666   6   -66666 666-- >>>>>>>:::;::: 444444  444444 ::: 666666",
"666666 6&66- 6666 666-- >>>>>>>:::::: 4444444444444444 :: 666666",
"66 666 6&66  6666 6  -- >>>>>>>::::: 44444444444444444 :: 666666",
"66 66666&   -  6o  - 666 >>>>>>:::::4444444 44444  4444  6666666",
"66        66----  -  666 >>>>>>:::::444444   444   4444  6666666",
"6  666 6&66   ---- --666 >>>>>>:::::444444   444 4 4444  6666666",
"6  666 6&6666  6  ---666 >>>;;>::::: 444444 44444  4444  6666666",
"6  66666&666 66666 --666 >>;;;; :::: 44444444444444444 4 6666666",
"66   6 6&   6666666-- 66 >>;;;; ::::  4444444444444 44 : 6666666",
"6 666 66 6666666666.- 666 >;;;; :::::: 444444 44444:  :: 6666666",
"6 66666 &6666666666  - 66 >>;;; ::::::: 444  :     : ::: 6666666",
"6 6666  666666666666 - 66 >>>;> :::::::    ::::::::: ::: 6666666",
"6 6 66 66666666666666 --& >>>>> ::::     ::::: :   :::::66666666",
"6 6 66 66666666666666 --& >>>>>> :::     ::::::::: :::::66666666",
"666 6 666666666666666 --$,;;>>>> :::     :::::::::::::::66666666",
"666 6 6666666666666666 -+,;;;>>> ;;:      ::::::::::::::66666666",
"66   66666666666666666 -- >;;>>> ;;:               :::::66666666",
"66   666666666666666666 - >;>>>> :;:        44: 4 ::::::66666666",
"66666666666666666666666&$-&>>>>> :::  ==@     :   ::::: 66666666",
"666666666666666666666666&    >>> :::: ==      ::::::::: 66666666",
"666666666666666666666666&- :: >> ::;:: ==     :::::;:: 666666666",
"666666666666666666666666<-:::::>> :;;:::     :=:::::::    666666",
"666666666666666666666666& ::::: > :;;::::  :::=::::::  ::: 6    ",
"666666666666666666666666& ::::: > :;::::::::==::::::: :: :: ::: ",
"666666666666666666666666  ::::: > ::::::====:::::::: 4  6  :::  ",
"6666666666666666666666  5 :::::   ::::::::::::::::::  66666 :: 6",
"6666666666666666666666 ,:::::: 44 ::::::::::::::::   666666   66",
"6666666666666666666666 5:::::: 44                 4  66666666666",
"666666666666666666666 : , ::   44 44444 &4 == 44  4  66666666666",
"666666666666666666666 ::&6  o--    44444&4 ==   444 666666666666",
"6666666666666666666666  66  ##- #         4         666666666666",
"66666666666666666666666666  ##--  ******** = ****** 666666666666",
"66666666666666666666666666  ##o-  *   **   =   *    666666666666",
"66666666666666666666666666   #o-- *   **   =   *    666666666666",
"66666666666666666666666666 ##  -- ******** = ****** 666666666666",
"666666666666666666666666666  ##+- ********* ******* 666666666666",
"6666666666666666666666666666  #.  ***************** 666666666666",
"666666666666666666666666666666  # ***************** 666666666666",
"66666666666666666666666666666666                    666666666666",
"66666666666666666666666666666666666666 : 66666666  6666666666666",
"66666666666666666666666666666666   666 : 66666666 :6666666666666",
"6666666666666666666666666666666    666 : 6666666666 6666 6666666",
"6666666666666666666666666666666    666 : 66666666664 66  6666666",
"66666666666666666666666666666666      :: 66666666664 66  6666666",
"66666666666666666666666666666666   444:: 6666666666 4    6666666",
"66666666666666666666666666666666        666666666666     6666666",
"6666666666666666666666666666666    46666666666666666    66666666",
"6666666666666666666666666666666    66666666666666666    66666666",
"66666666666666666666666666666666   66666666666666666666666666666",
"6666666666666666666666666666666666666666666666666666666666666666"
};
