/* XPM */
static char *_6bcd1a0506c4dcddd1dea632958da79y0ln6nmgppHQQrrA[] = {
/* columns rows colors chars-per-pixel */
"64 64 17 1 ",
"  c None",
". c black",
"X c #111111",
"o c #210000",
"O c #660000",
"+ c #777777",
"@ c #993300",
"# c red",
"$ c #9C6331",
"% c #999900",
"& c #FFFF31",
"* c #FFFF33",
"= c #CCCC66",
"- c #888888",
"; c #DDDDDD",
": c #EEEEEE",
"> c white",
/* pixels */
"                        ...$$$$.                                ",
"                       .$..  ..$$..                             ",
"                       .$..    ..$$.                            ",
"                       $. .   .  ....                           ",
"                       $. .   .   .$ .                          ",
"                     ... ..    .  .$.                           ",
"                  ....$ .. .       $.  .                        ",
"                  .**...   .   .. .$. . .                       ",
"                  .****....     . .. ..  .                      ",
"                  .*%%**********.....  .  .                     ",
"                  .*%%***************......                     ",
"                  .*%**********************....                 ",
"                  .****************%%**********.                ",
"                  .****...**.**********%%%%***.=-               ",
"                 .****.:::..***:*******%%%%***.==.              ",
"                 .***.:::::.******************.===              ",
"                 .**.+::::::...........*******====..            ",
"                 .**::::::::.::::::::.*******.%%%====.          ",
"                 .&*::::..:.::::::::::.******.%%%====.          ",
"                 .**:::.....::.:::::::.*****.=%%======          ",
"                 .**:::.:...:...::::::.*****.=%=======          ",
"                 .**.:.::::.::.:::::::.****.==========          ",
"                 .***.*.:::.:::::::::;.****.=========.          ",
"                 .***.**.....::::::::.*****=========.           ",
"                 .****.*****.::::::....****=========.           ",
"                 .*****....****....*******.===%%%%.             ",
"                 .***..************..*****.===%%%=.             ",
"                 .****.************...****.===%%%=              ",
"                ..***************:*..****.====%%=.              ",
"             .....%****:.*..........*****.======.               ",
"            ..&&$%%****..*.:..:.....*****.======.               ",
"            .&&&$.*%******..........****.=======.               ",
"            &&&&..%%******..........****.==%===.                ",
"            &&&&&.*******......#.##***%*.%=%==.                 ",
"            &&&.&..*******.....#.##*%%%*.%%%==.                 ",
"            &&&&.>.********....#...**%*.=%%===                  ",
"            &&.&.>..***####*....*******.=%%=..                  ",
"            .... .:::::****###*****%***===.:::.                 ",
"           .$..  ...:::..*********%%***===.:::..                ",
"           .$.   .@@.::::...:*****%%**.====:::.*.               ",
"          .$.    .@@@..::.#....&**%%**.====:::.**.              ",
"         .$$     .@@....:...>..::...**.====...  .*.             ",
"         ..o     .@@@..@.##..:::::::.....==.     ..             ",
"                 .@@@@@.###@@..:::::.:::....     ..             ",
"                 .@@@@@.###..@@...:+.::::::.    ...             ",
"                   .@@@.##.@@.....@........   .***..            ",
"                    ......@@@@@.....OOOOOOO   **.**.            ",
"                       ..@@@@@@@....OO..OO.   ...*..            ",
"                        ...@@@@@@@@.OO..OO.     ...             ",
"                          .@@@..@@@OOOOOO.                      ",
"                           @@@@ .........                       ",
"                           ....                                 ",
"                           .**.                                 ",
"                            ..*                                 ",
"                             .+.-                               ",
"                             .:...                              ",
"                           ...:::..                             ",
"                           ........                             ",
"                           .....X..                             ",
"                            ....                                ",
"                           .  .:.                               ",
"                          .........                             ",
"                          .........                             ",
"                                                                "
};
