/* XPM */
static char *_bdebf9f867c405590381e111a8cf7a7[] = {
/* columns rows colors chars-per-pixel */
"64 64 255 2 ",
"   c None",
".  c #557D00",
"X  c #5A8F04",
"o  c #689B07",
"O  c #769B07",
"+  c #769A16",
"@  c #66900D",
"#  c #6AA606",
"$  c #7CA30B",
"%  c #77A808",
"&  c #7BBC0B",
"*  c #77B607",
"=  c #7BA813",
"-  c #7DBB14",
";  c #79B516",
":  c #6CB00C",
">  c #799A2D",
",  c #7DA82C",
"<  c #5EA303",
"1  c #7AC20B",
"2  c #7DC314",
"3  c #85AA09",
"4  c #85B70A",
"5  c #84AB14",
"6  c #8BAD1C",
"7  c #85AA19",
"8  c #8CB314",
"9  c #84BC14",
"0  c #8CBC14",
"q  c #8CB31B",
"w  c #8CBC1B",
"e  c #85B618",
"r  c #92B51C",
"t  c #94BA1C",
"y  c #9BBC1C",
"u  c #94B714",
"i  c #93B710",
"p  c #A2BD1D",
"a  c #8CAD22",
"s  c #87A925",
"d  c #89B724",
"f  c #93B423",
"g  c #94BB24",
"h  c #9BBC23",
"j  c #9BB52B",
"k  c #9CBC2B",
"l  c #95B62A",
"z  c #85A637",
"x  c #9CBA33",
"c  c #9CBA3B",
"v  c #98B535",
"b  c #91AF2F",
"n  c #A2BD24",
"m  c #A2BD2B",
"M  c #A4BB2B",
"N  c #A2BC33",
"B  c #A3BA39",
"V  c #87C70C",
"C  c #97C609",
"Z  c #8BD40A",
"A  c #97DC0B",
"S  c #84C314",
"D  c #8BC414",
"F  c #8BCC14",
"G  c #8CC51C",
"H  c #87C71A",
"J  c #93CC15",
"K  c #94C41C",
"L  c #9BC21C",
"P  c #94CB1C",
"I  c #9BCB1D",
"U  c #98C714",
"Y  c #8CD312",
"T  c #8DD518",
"R  c #95D515",
"E  c #9BDC15",
"W  c #95D31A",
"Q  c #9BD41C",
"!  c #9CDC1C",
"~  c #99D716",
"^  c #A5C81A",
"/  c #A3D31B",
"(  c #A4DB1C",
")  c #A9D719",
"_  c #B4D61D",
"`  c #A9CE0F",
"'  c #9AE216",
"]  c #99EB0D",
"[  c #A8E61A",
"{  c #B4E51A",
"}  c #ADEA13",
"|  c #89C625",
" . c #93C422",
".. c #9CC224",
"X. c #9CCA22",
"o. c #9DC22B",
"O. c #98CB29",
"+. c #9BD423",
"@. c #9BD726",
"#. c #9AC639",
"$. c #9CD233",
"%. c #A3C424",
"&. c #AAC425",
"*. c #A4CB24",
"=. c #ABCB24",
"-. c #A3C32B",
";. c #AAC42C",
":. c #A4CC2C",
">. c #ACCA2C",
",. c #B2CC2C",
"<. c #B4CA29",
"1. c #A4D423",
"2. c #ABD524",
"3. c #A4DC23",
"4. c #ACDC24",
"5. c #A4D32B",
"6. c #ACD32B",
"7. c #A9DA2A",
"8. c #B3D32B",
"9. c #BAD42D",
"0. c #B4DB2B",
"q. c #BCDC2E",
"w. c #B5D825",
"e. c #A3C334",
"r. c #ABC532",
"t. c #ACCA33",
"y. c #A7C73A",
"u. c #B3CC32",
"i. c #BACF35",
"p. c #B4CB3A",
"a. c #A9D835",
"s. c #B4D333",
"d. c #BBD333",
"f. c #B3DA34",
"g. c #BDDB33",
"h. c #BCD43A",
"j. c #B8DB3C",
"k. c #ABE223",
"l. c #ACE32B",
"z. c #A8E625",
"x. c #B4E32B",
"c. c #BBE32C",
"v. c #B7E828",
"b. c #B9E635",
"n. c #B1E834",
"m. c #9EE323",
"M. c #C2DD34",
"N. c #C2D838",
"B. c #C6DB2E",
"V. c #C6E82C",
"C. c #C7F52D",
"Z. c #C5E134",
"A. c #CAE533",
"S. c #C4EB34",
"D. c #CAEA39",
"F. c #D4ED3A",
"G. c #C8F336",
"H. c #D6F838",
"J. c #D3EE2F",
"K. c #E3F034",
"L. c #C2DE1C",
"P. c #99B747",
"I. c #9BB954",
"U. c #8CAB49",
"Y. c #A2BC48",
"T. c #A5BC58",
"R. c #9BB76A",
"E. c #A8BD71",
"W. c #9DC644",
"Q. c #9BCC50",
"!. c #A9C44B",
"~. c #AAC746",
"^. c #B4CB4A",
"/. c #ABD744",
"(. c #B9D747",
"). c #AAC656",
"_. c #B3CB59",
"`. c #B7D757",
"'. c #ADD852",
"]. c #BCE358",
"[. c #BBE645",
"{. c #ABC468",
"}. c #B4C868",
"|. c #B9D665",
" X c #B4C878",
".X c #BBD777",
"XX c #AACA72",
"oX c #BCE366",
"OX c #B7E071",
"+X c #C3DB46",
"@X c #C3DC5A",
"#X c #C6E948",
"$X c #D5ED47",
"%X c #CDF447",
"&X c #D8F748",
"*X c #C8EA57",
"=X c #D4EC59",
"-X c #D6F558",
";X c #CFF35A",
":X c #E5F857",
">X c #E9F64E",
",X c #C5D877",
"<X c #C9DB65",
"1X c #C6E868",
"2X c #D4EA67",
"3X c #D8F565",
"4X c #C6E678",
"5X c #D8ED78",
"6X c #D9F575",
"7X c #CEF173",
"8X c #E3FA69",
"9X c #E5F876",
"0X c #EFF973",
"qX c #B9CB86",
"wX c #BDD587",
"eX c #BBCB97",
"rX c #BCD899",
"tX c #C6D887",
"yX c #C4D593",
"uX c #C8D999",
"iX c #CED893",
"pX c #CBE58B",
"aX c #D6E787",
"sX c #DBF48B",
"dX c #CBE496",
"fX c #D7EA98",
"gX c #DCF495",
"hX c #E7F889",
"jX c #F4FD88",
"kX c #E7F997",
"lX c #F6FD97",
"zX c #CADAA6",
"xX c #D5DEA8",
"cX c #CBD7B1",
"vX c #CCE1A7",
"bX c #D7E6A8",
"nX c #DAE9B7",
"mX c #D7EFB4",
"MX c #E7F8A8",
"NX c #F6FCA7",
"BX c #E3EBBB",
"VX c #E9F6BA",
"CX c #F5FBB5",
"ZX c #E2EEA0",
"AX c #DCE8C5",
"SX c #DFF2C9",
"DX c #E4EDC8",
"FX c #E9F5C9",
"GX c #F4FBC7",
"HX c #EBF6D5",
"JX c #F4FBD7",
"KX c #E7EDD3",
"LX c #F9FEE6",
"PX c #F8F9F7",
"IX c #D1DDC3",
/* pixels */
"9.M.g.|.FX      bX:.I = |.z g :.-.; < H ].          qXs -.;.}.nX      GXMX2X+Xg.w.%.v qXR.$ a h ,.&.-.;.>.>.>.h L / C Q ( k.! S ",
"9.M.g.^ |.xX    `.5.:.o.= o * g e.d < ; ].gX        bXb %.^.fX      5X$XH.V.9.n P. XzX  cX+ 7 h u.i.<.<.&.}.pX`.U 4  .I ~ ( ~ & ",
"N.N.g.g.j.=.) p.t.2.X.X.D = # q h g = = j.6X        GXP.r.<.<XMXhX$XH.S.%.x }.fXJX      cXO = t r.N.<.&...x c o...6.:...K K I D ",
"9.+X(.(.g._ c.g.0.5.k.6.X.#.I.U.a l q 3 W.%X8X      BXP.=.g.Z.S.c.2.L r b zX            cX@ 3 k ;.h.=.^ *.y %.U g k t g e e d d ",
",X      FXtX|.!.-.^ L wXBX    mXs 8 q t V b.kX      yXo.*.j.&.=.(.2X2X-X-X9XCXJX        cX+ 3 k 9.,.N T. XtXuXyXI.4 % # o o = 0 ",
"BX              uXk k AX        U.8 t k *.tX    bXqXj %.%.r h.9XlXNXNX9X$XC.%X6XGX      nX> 3 t.9.*._.          pXz.' Y 1 # o + ",
"                eX+ $ zX        XX5 t >.^.fX  uXP.b &.h r >.:XjXlXMXsX1Xa.7.{ V.VX        U.5 t.s.%.}.          FXoXE ' V # # O ",
"              jXaXf o R.        uX7 g %.%._.T.r y e.h 7 5 %XD.*X].'.#.G D P ! /.VX        eXa t.~.U  X            wX; 3 L f.g.j.",
"      CXNXNX9X$XV.S.b.{.FX      bX8 l -.;.-.%.8.%.h 7 + 8 G.c.1.I H ; * & F W ].          KXB u.~.i {.          JXP.I G.H.&X8XjX",
"      hXjXhX`.O.J *.v.S.@XxX    yXi k r.p.d.<.-.y.s $ O 8 S.4.W F 2 1 V Y R a.fX          nX-.p.t.y XX          yXN H.G.V.V.=XhX",
"    sX*X].O.& * - P k.{ ` &.,XbXT.u r.u.h.>.Y.yXVX{.u 7 $ x.x.Q R Y E ' ' E oXJX           X^ p.%.r ^.VX      AXU.%XG.S.x._ 4.b.",
"  fXq.k.! | | F A ] @.:.U L 6 v f %.y.,.;.y.      iX8.l O 1.l.l.( E ' ' A R 4X    LX      }.` r.y f >.tX  JXeXU.* C.S.v./ O.O. .",
"GX4X/ x.l.z.m.z.[ ! F % 4 4 8 r %.,.>.h `.5X        aXy.5 $ d J O.+.W P | F S XXSX        ).=.m f x l %.%.y t = 3 v.n.z.Q G S S ",
"MX|.C C D P P W Q +.9 o % % 8 y >.;.h j.-X8X6XhX        tX XP.U.z $ = d F w 9 * d rX    BX!./ g yX.Xm ^ >.%...$ O D { [ [ R V S ",
"kX`.C 4 % # # * 5.6. .# # % 8 ;.>.h f.[.[.*X3X6X9XhXlXkXGX    GX  PXcXR. .C e e 4 * XXVXfXp.t W.  }.&.>.h.t.t O E.nX7.} { [ R F ",
"pX].D 9 * : # # w 6. .# # % t -.r.t.f.3.4.4.w.w._ <.<.<.(.aXMXvX1X*XFXFX{.d X.0 q S & d p.&._.HXnXB =.h.(.i O R.mXpX@.E [ [ [ ! ",
"/./.O.9 * * * * & ;.g ; % 5 -.-.:.a.@.W ` ` ` ` ^ ^ 8.8.1.+.+.R @.l.G.-XaXe o.:.r r t t -...l.b.6...p.9.u O , #.5./ @.5.! E [ [ ",
"d w 9 S & * * & 1 h g = 5 ..t.;.%.:.I K 0 w K K  ...*.I J J F H G Q { J.&X~.q -.>.%.y -.-...x.C.S.>.-.i 3 $ 0 :.7.4.5.( Q @.$.$.",
"e ; & 2 H | ; : * 8 h 8 h u.i.,.;.:.%.%.>.>.8.6.6.*.+.P D Y Y 2 & D j.3X9X8X*Xe.-.s.s.u.u.*.x.C.w.u 8 3 8 g :.a.x.) / L 4 % o X ",
"t 9 1 S O./.#.= 4 8 u n ,.i.,.,.>.:.>.>.*.*.*.X.K K G G F Y Y 2 * S oXMXkX:X3X].k n ,.d.i.n L 0 0 5 r u *.a.f.6./ y..XbXE.+ O y.",
"%.K S F #.OXoXK C r o.>.>.^ p f r w K K K D * # # X o - W R R 2 * G 1XkXhX&Xf./. .d >.d.d.>.h r i ..t.>.s.f.6.^ ..uX      yX#X9X",
">.o.G O.'.|.#.i r k g o.~.,XtX5X2Xj.I R ~ 3.3.@.T 2 : : +.@.R H 2  .].6X8X#XI G  .= h ,.h.s.>.>.p.p.s.h.g.s.o.).dX        VX&X;X",
"h.u.o.$.'.W.8 r a 6 0 :.*XgXMXlXjX-X6.@.$.a.a.3.' ' ' V P l.[ +.R ~ x.G.G.O.I I X.8 n u.i.i.u.u.u.s.8.8.%.r u {.          6X{ 7.",
"h.h.u.t.k q q 5 = ; 9 9 G a.].*X-X&X#X|.4X4X7X*X5.R [ ! V @.b.b.k.x.#X*X#Xb.&X$X9.r n ,.h.d.&.y M B Y.b f ..y s qX        ;X{ Q ",
"9.g.d.&.p 8 7 d S * : : ; H W ( v.H.2XfXMXZXkX7Xb.3.+.Q Q.- a.;X-X3XkXMXgX>X>XF.,.q -.u.u.y %.#XVXJXJXwX7 0 x o.6 zX      ;Xa.+.",
"N.N.s.-.f l +.! Y 1 1 * * 2 H @.n.G.9XCXCXhX%Xx.x.v.v.*XBX            MX&XH.H.q.8 q -.;.n %.%X&X*XLXPXHX> O + a 8 c bX    sXf.E ",
"9.d.-.a y.'.a.~ E E Y V V F | @.v.;XNXNXkX*X5.I I +.l.b.gXJX          sXG.b.4.0 % f -.-.t f.c.` ^ 5XMXlX9X9X=X+X^ 3 ).FX    fX[.",
"d.m b c ~.~.O.J ~ ~ ~ ~ Q @.3.[ C.3XkXsX].O.9 - S P ! [ *XFX          6Xv.3.4 % q k h r w G 4 ) &X0XNXCXCXlXlX0X:X$Xn .XVX      ",
"h l )._.~.~.o.I K I 5.1.*.a.(.1XaX9X%Xf.O.& * ; - Y ! [ [.HX  LX      7X1.& % a k n r 8 - # K %X8X0XNXCXCXNXjX:X>X>XH.e.fXGX    ",
"s <XfX,X~.e.:.:.K a.0.8.~.}.tXAXDX3Xv.+.S - ; * V R [ [ 4X            vXd = q n ;.h a 4 - : ( &X:X-X-X=X*X#XS.S.D.H.H.A.|.      ",
"*X9XsXaX|.y.*.:.:.*.2.6.^.iXnX    6X{ Q G S 2 V E } z.+.aX            GX.X8 ..;.m t 9 Y V * v.H.C.v.4.1.I K K I 2.x.S.C.(.CX    ",
"-X8XhXZXpX~.:.:.y.L 6.6.~.bX      kXb.3.+.W Y E [ } z.5..X            JX Xt t.r.r e & S #.W.].G.v.3.P S & * * S F +.l.S.+XCX    ",
"$X8XkXBXbXv i y y.o.k 6.2.tX      JX3Xv.k.z.[ [ k.k.3.7.5.bX          bXx ;.u.;.q e & Q.nX    *Xk.Q F S - 1 1 V F Q l.x.(.VX  mX",
"%XhXCXMX5X#XD.=X6X*Xf U ^ |.mX        fXb.x.k.l.4.2.5./.) |.          yX^ i.i...w  .* dX      mXl.E A Y Y Z E T ' k.4._ ^.fXiX_.",
":.`.6X=XG.C.G.2XkXMXkX@X6.s.tX            fX#. .k |.4X) 0.;.tX        ,Xh.N.u.y t O.e .X        MX].@.T V F Y T ! 1.8.t...*.*.L ",
"5 q x.c.c.4.5./.1XkXMXkX=X9.9.xX          zXz 4 s eXPXvXt.) *.qX      dX9.N.>.t ..5.X.#.pX        VXoX$.; S S +.0 y p.^.`.<X@Xy.",
"3 f b.0.:. .9 & D y.1X1X=X#X>.tX      JXCXhXD.&X$X5XJXPXbXc K ^  XiX  tX^ d.;.k e.:.6.L  X            oXd - O.I y $X0XlXCXGXCXjX",
"3 8 2.) U D - : : w g j.S.g.d.p.BX    gXC.V.V.D.&X:X0XlXPXnXP.i -.%.!.x u.u.e.B ~.-.8.:.t .X    MX    `.d G X.^ F.>X$X5X5XhX9X=X",
"qXz w Q P P H 9 ; d t *.g.N.h.;.,X  gX4.1./ / 2.#X9XNXlXNXLXBX~.y.^.^.p.u.d.^ P.4X~.,.d...P.fXFX      '.w X.5.g.K.K.q.=.*.%.*.w.",
"  zXI.= e H V F D w K 8.q.9.N.&._.  oX( W D V D O.].MXCX2X<XhX0XjXCXCXlX0X>XN.c fX.Xe.j.*.r c         v X.2.:.o.$XL.^ U i 4 4 U ",
"    nXz e 9 9 K  .U *.8.d.h.i.&._.  '.Q D & * * -  .1X5XL.K.>X:X9XhXhX9X:X>X>XM tXfX!.t.,.%.k `.    W.g f.=.t + g.B.) / Q J J J ",
"  BXkXv t w g y.~. XtX!.j <.,.:.XXHX/.n.a.G : # % 4 O.-.w.>XJ.q.8.>.>.<.w.B.K.M.).,X`.j ;.;.f W.nX.Xf :.s.>.5 X 8 w.4.{ { { [ k.",
"  vX_.....r a _._.iXDXnXb %.%.%.c.S.*XhXhXhX'.= : ; 0 4 ) D.w.^ 0 9 0 U U 9.V.V.q |.,X).k -.k +  X).h s.s.k q s O {.|.4.} l.4.{ ",
"bX^.L :.t 5 7 ^.|.xX  HXT.u 0.b.l.3.a.1XZXMXkX'.; ; F 0 L S.0.) U J J U / _ V.2.6 {.pXMX X-.t + > a >.8.-.f ..x E.LXuX( 7.~ /.7X",
".X%.*.o.5 $ 7 ^.|.nX    {.K b.k.Q F H | |.4X7X#X1.D +.+.i ) v._ ) } } } { w.%.-.f T.      P.$ = 5 t >.p m k %.}.FX  dX[ a./ dXJX",
"t.:.o.7 $ 3 6 ^.,XbX    E.D l.( Q H 2 * * | $.l.k./ 3.k.) `.fX1Xj.( [ ) 2.~.).b L v   JXMX|.6 7 q ..;.r r.g |.DX    .Xv.l.f.dXLX",
"0.b P.O h n e._..XbX  HXP.% P @.Z T 1 | - S G +.n.5.O.sXSX      mXa.( 5.3.).tXqXv *.(.-X&XS.x.x.%.*.^ k l t JX      /.v.l./.    ",
"y {.tX6 u.m y._..XxXDXyXo.4 % Q.W.~ @.Z T | P / 0.t = pX          |.( l.3.|.uXBXiX~.2X9X#X2.Q ~ 2.x j r yX  LX      a.v.l./.    ",
"x nXmXh >.m ^._.}.iXtXy.2.u O IXmX* | A A ~ 7.x.g.m l .X          dX4.b.k._.zX        hX(.G S Y $.{ b.fX    LX      a.c.7.'.    ",
"T.  vXy u.r.`.|._._.e.y y r 3 nXrX# % , {.wX4X~.;.-.h {.          dX5.b.x./.vX        sX/.- & Y Z a.-X3XVX  LX      j.c.:._.    ",
"P.  vXu s.;.y.^.!.-...y r e.6 {.U.o , vX    JX{.y >.&.T.KX        mX:.x.x./.yX  GX    7XO.: 1 T H J j.hXCXGXLX      j.M.:._.    ",
"y eX  k s.u.u.;.>.*.N c f g O s ; % E.        wXu p.<.y.yX        nXy.f.x./.yXnX    -X[. .& V F J D O.].gXMX    DX.Xf.q.*.{.LX  ",
"*.E.  {.>.d.d.d.6.k Y.|.b 6 $ d  .6 SX        nXh t.9.%.yX        nX#.s.c./.yXnX  kX%Xb.( F F Y P @.1.*.s.`.`.^.p.) { g.*.Y.nX  ",
"t.x KXzXm s.d.d.-.j T.}.v 7 = g I b             Y.-.h.=.^.HX      AXx s.c.f.tXnXPXLX1Xb.x.Q F T H D I 2.4.0.0.f.(.(.+X(.=.k  X  ",
"-.^ zX`.B r.d.>.k l ).T.Y.O $ o.^ h KX           X;.p.,.` nX    LXnXx s.q.6._.,XbXbX#.X.*.X.P T F D @.b.b.`.wXuXmXfX@X(.2.r eX  ",
"e.^ ,X  I.m u.y.l !.~.!.).+ o t k...dX          iXx >.>.p.y.GX    wX-.8.M.M.w.0.f.0.g.6.4.#.fXFXmX'.j.S.#X4X        BX(._ N E.  ",
"t.m bX  ).h ,.k ).|.~.~.)., @ = U 4.E.          FXiXy 9.u.m yX  KX{...8.N.(.j.(./.:.*.^ 3 > zX    uX-.w.r  X        LX}.w.h !.  ",
"=._.HX  vXu -.h uXpX|.^._.v X X e Q y.qX          DX~.<.u.&.XX  DXP.L s.(.,X    LX XO 7 O > bX    yXa >.N qX          fXy.e.a DX",
"^ xX    JXu o.%.KXBXaX<X_.P.. X @ I U ).            tX;.u.&.m AXbXl %.t.!.tXnXKXDX{.= 3 $ > dX  nXyXk k l c tXyXyXtXyX}.r a 8 P.",
"v T.).).Y.l a b T.).Y.c v b s 7 7 a a a P.f P.I.P.I.v f f f f c c f h h h x N N N m m m -.-.;.r.<.>.<.<.,.<.9.d.d.d.d.d.q.g.M.M.",
"9.9.d.d.d.w.w.q.g.q.g.g.M.M.M.g.g.g.g.M.M.M.M.M.M.M.N.N.N.N.N.M.M.M.Z.Z.Z.Z.Z.Z.A.A.A.A.A.A.A.A.A.A.A.D.D.D.F.F.F.F.F.D.D.D.D.D.",
"A.A.A.A.A.A.A.A.D.D.D.A.A.A.A.A.A.A.V.V.V.A.A.A.A.A.A.Z.Z.M.M.Z.Z.Z.M.Z.M.+X+XN.N.N.h.d.d.d.d.d.d.i.i.i.p.i.d.u.u.>.;.=.=.=.&.%.",
"r.r.r.r.r.r.r.r.r.;.r.r.t.t.t.;.;.;.;.;.;.;.;.;.;.;.-.;.;.e.r.m m m N N N n n n m m m M j j j j h j j j x c Y.T.T.{.{.qXqX X    ",
"                                                                                                                                "
};
